<?xml version="1.0" encoding="UTF-8"?>
<svg width="80px" height="24px" viewBox="0 0 80 24" version="1.1" xmlns="http://www.w3.org/2000/svg" xmlns:xlink="http://www.w3.org/1999/xlink">
    <!-- Generator: Sketch 51.1 (57501) - http://www.bohemiancoding.com/sketch -->
    <title>Group</title>
    <desc>Created with Sketch.</desc>
    <defs></defs>
    <g id="Page-1" stroke="none" stroke-width="1" fill="none" fill-rule="evenodd">
        <g id="Homepage-Copy-4" transform="translate(-250.000000, -30.000000)">
            <g id="header" transform="translate(250.000000, 30.000000)">
                <g id="Group">
                    <path d="M71.0561798,2.56629213 C71.0516854,2.72719101 71.047191,2.88808989 71.047191,3.0494382 C71.047191,9.67730337 71.0426966,16.3074157 71.0561798,22.9370787 C71.0561798,23.2768539 70.9707865,23.3676404 70.6292135,23.3626966 C69.2179775,23.3433708 67.8067416,23.3465169 66.4,23.3604494 C66.1168539,23.3640449 66.0494382,23.2831461 66.0494382,23.0085393 C66.058427,16.2939326 66.058427,9.57707865 66.058427,2.86157303 C66.058427,2.76269663 66.0719101,2.66561798 66.0808989,2.56629213 C67.7393258,2.56629213 69.3977528,2.56629213 71.0561798,2.56629213 Z M41.7339326,9.73707865 C42.9752809,8.8094382 44.3006742,8.28179775 45.7649438,8.1011236 C45.8148315,8.0952809 45.8642697,8.08629213 45.9123596,8.08179775 C46.4575281,8.02292135 46.4575281,8.02292135 46.4575281,8.57707865 C46.4575281,9.49348315 46.4453933,10.407191 46.4629213,11.3222472 C46.4674157,11.6062921 46.392809,11.6930337 46.0957303,11.7096629 C44.748764,11.7829213 43.5123596,12.2058427 42.3757303,12.934382 C42.1626966,13.0692135 42.0858427,13.2197753 42.0858427,13.4714607 C42.0948315,16.6247191 42.087191,19.7779775 42.0993258,22.9303371 C42.1011236,23.2597753 42.0323596,23.3694382 41.68,23.3640449 C40.2714607,23.3424719 38.861573,23.3483146 37.4521348,23.3604494 C37.181573,23.3626966 37.0948315,23.3020225 37.0957303,23.0170787 C37.1047191,18.2939326 37.1047191,13.5689888 37.0957303,8.84539326 C37.0948315,8.56494382 37.1775281,8.49707865 37.4498876,8.49977528 C38.698427,8.51325843 39.9478652,8.51595506 41.1977528,8.49797753 C41.4750562,8.49393258 41.5604494,8.59460674 41.585618,8.84719101 C41.6139326,9.12764045 41.6764045,9.40359551 41.7339326,9.73707865 Z M76.952809,4.22561798 C77.7303371,4.22561798 78.5123596,4.23191011 79.2898876,4.22157303 C79.5146067,4.21932584 79.5910112,4.28719101 79.5910112,4.51775281 C79.5775281,5.38292135 79.5820225,6.24988764 79.5865169,7.11640449 C79.5910112,7.3294382 79.5146067,7.38741573 79.3078652,7.38741573 C77.7348315,7.38067416 76.1662921,7.37932584 74.5932584,7.38741573 C74.3730337,7.38966292 74.2921348,7.32539326 74.2966292,7.0952809 C74.305618,6.24134831 74.305618,5.38786517 74.2921348,4.53393258 C74.2876404,4.28269663 74.3775281,4.21842697 74.6157303,4.22067416 C75.3932584,4.23280899 76.1752809,4.22561798 76.952809,4.22561798 Z M63.047191,20.219947 C62.5168539,21.8343291 61.5339326,23.0136549 59.8485393,23.4941043 C58.76,23.8042167 57.6530337,23.8154527 56.541573,23.6293852 C55.4386517,23.4433178 54.4359551,23.0226437 53.5541573,22.2702841 C53.4642697,22.5264639 53.3703371,22.7435425 53.3132584,22.9682616 C53.2507865,23.2226437 53.1276404,23.3138796 52.8516854,23.3098347 C51.7137079,23.2918571 50.5752809,23.2851156 49.4386517,23.3107336 C49.0638202,23.318374 48.9707865,23.223992 48.9725843,22.8482616 C48.9847191,16.2550032 48.9802247,9.66084591 48.9811236,3.06758749 C48.9811236,2.93185715 48.9977528,2.79747513 49.0053933,2.66264367 C50.6647191,2.66264367 52.3231461,2.66264367 53.9802247,2.66264367 C53.9802247,4.75657625 53.9802247,6.85185715 53.9802247,8.99432906 C55.3105618,8.23118299 56.6975281,7.96826164 58.1586517,8.01455378 C60.5811236,8.09320546 62.2696629,9.36107063 63.0157303,11.6585987 C63.3617978,12.7138796 63.5191011,13.7997223 63.5775281,14.9017448 C63.6719101,16.7008459 63.6134831,18.4878122 63.047191,20.219947 Z M58.4292135,13.96961 C58.0921348,12.2176998 57.0431461,11.5520819 55.3042697,11.9772504 C55.1838202,12.0069133 55.065618,12.0428684 54.9496629,12.0837673 C54.0462921,12.4024189 53.9716854,12.5075875 53.9716854,13.4500594 C53.9716854,14.2293852 53.9716854,15.0073628 53.9716854,15.7853403 C53.9716854,16.7381493 53.9770787,17.6900594 53.9667416,18.6428684 C53.9644944,18.8612954 54.028764,19.0248909 54.1941573,19.1570257 C55.141573,19.9138796 56.2040449,20.0662392 57.3357303,19.7129807 C57.8444944,19.5534302 58.1105618,19.1219695 58.2817978,18.6374751 C58.4364045,18.2042167 58.505618,17.7507336 58.5406742,17.2950032 C58.6247191,16.1808459 58.6404494,15.0707336 58.4292135,13.96961 Z M34.4485393,12.9208989 C34.7150562,14.3698876 34.6004494,15.8310112 34.6319101,17.2894382 C34.6373034,17.5622472 34.4674157,17.5397753 34.291236,17.5397753 C32.8435955,17.5370787 31.3950562,17.5397753 29.948764,17.5397753 C28.5379775,17.5397753 27.1285393,17.5465169 25.7177528,17.5330337 C25.4139326,17.5307865 25.3146067,17.5905618 25.3586517,17.9231461 C25.4921348,18.9474157 26.0480899,19.5901124 27.0211236,19.8867416 C28.1779775,20.2422472 29.3676404,20.2085393 30.5532584,20.1258427 C31.4022472,20.0660674 32.2507865,19.9568539 33.0764045,19.7330337 C33.291236,19.6750562 33.3555056,19.7388764 33.3546067,19.9604494 C33.3447191,20.9375281 33.3393258,21.9146067 33.3582022,22.8916854 C33.3622472,23.1465169 33.2247191,23.2044944 33.0395506,23.2597753 C32.0008989,23.567191 30.9361798,23.705618 29.8606742,23.7676404 C28.3348315,23.8570787 26.8220225,23.7748315 25.3375281,23.3694382 C22.8094382,22.6826966 21.3505618,21.0085393 20.8579775,18.4710112 C20.4835955,16.5280899 20.4970787,14.5806742 21.0247191,12.6638202 C21.658427,10.3564045 23.1307865,8.88404494 25.4849438,8.33483146 C27.0507865,7.96808989 28.6260674,7.9505618 30.1910112,8.30382022 C32.658427,8.85977528 34.0013483,10.4844944 34.4485393,12.9208989 Z M30.141573,14.6247191 C30.4094382,14.6314607 30.4777528,14.5438202 30.4620225,14.2853933 C30.4323596,13.8139326 30.378427,13.3514607 30.2206742,12.9029213 C29.9901124,12.2498876 29.5447191,11.8224719 28.8602247,11.6678652 C28.2341573,11.5249438 27.6103371,11.5235955 26.9860674,11.672809 C26.305618,11.8341573 25.861573,12.254382 25.611236,12.9002247 C25.4377528,13.3438202 25.4,13.8125843 25.3424719,14.2786517 C25.3110112,14.5303371 25.3779775,14.6314607 25.6525843,14.6247191 C26.3946067,14.6085393 27.1370787,14.6197753 27.8791011,14.6197753 C28.6332584,14.6197753 29.3869663,14.6085393 30.141573,14.6247191 Z M18.6247191,15.8988764 C18.9806742,17.3766292 18.9083146,18.8525843 18.4211236,20.287191 C17.7973034,22.1280899 16.414382,23.0269663 14.5492135,23.2831461 C14.0557303,23.3492135 13.5626966,23.3564045 13.0683146,23.3564045 C10.0853933,23.3541573 7.10382022,23.3492135 4.12179775,23.3604494 C3.80314607,23.3626966 3.68359551,23.3078652 3.68359551,22.9474157 C3.69438202,17.9901124 3.68988764,13.0337079 3.68539326,8.07505618 L8.12269663,8.07505618 L8.12269663,3.60179775 C9.83101124,3.60269663 11.5393258,3.60629213 13.2476404,3.60494382 C14.0444944,3.60494382 14.8278652,3.68089888 15.5869663,3.93303371 C16.9739326,4.39505618 17.8701124,5.34202247 18.2422472,6.74426966 C18.5878652,8.04719101 18.5694382,9.36449438 18.2121348,10.6678652 C17.927191,11.7083146 17.3110112,12.4961798 16.3752809,13.0350562 C16.2916854,13.0840449 16.2094382,13.1379775 16.0669663,13.2269663 C16.2786517,13.3141573 16.44,13.3766292 16.5955056,13.4462921 C17.6705618,13.9348315 18.352809,14.7658427 18.6247191,15.8988764 Z M13.9698876,17.8593258 C13.9820225,17.6382022 13.985618,17.4152809 13.9752809,17.192809 C13.9164045,15.8530337 13.3038202,15.2220225 11.9707865,15.1829213 C10.9325843,15.152809 9.89258427,15.1761798 8.85573034,15.1573034 C8.59910112,15.152809 8.54516854,15.2525843 8.54921348,15.4831461 C8.56089888,16.1375281 8.55325843,16.7923596 8.55325843,17.4489888 C8.55325843,18.1164045 8.55640449,18.7847191 8.55146067,19.451236 C8.54921348,19.6202247 8.56629213,19.7321348 8.78382022,19.7285393 C9.90831461,19.7168539 11.0346067,19.7532584 12.1582022,19.7024719 C13.3141573,19.6480899 13.9029213,19.0134831 13.9698876,17.8593258 Z M8.55146067,7.5411236 C8.5541573,8.19685393 8.55325843,8.85213483 8.55325843,9.50696629 C8.55325843,10.1622472 8.55640449,10.8175281 8.55146067,11.472809 C8.54921348,11.6476404 8.58202247,11.752809 8.79101124,11.7483146 C9.84044944,11.7276404 10.8921348,11.8022472 11.9402247,11.6930337 C12.7892135,11.6062921 13.3352809,11.1092135 13.5379775,10.2737079 C13.6732584,9.71191011 13.6714607,9.14382022 13.5591011,8.5811236 C13.3959551,7.76898876 12.9716854,7.39460674 12.1451685,7.30786517 C11.0229213,7.19191011 9.89617978,7.28134831 8.77258427,7.25168539 C8.54157303,7.24494382 8.55146067,7.38651685 8.55146067,7.5411236 Z M79.4426966,9.99910112 C79.4382022,11.9748315 79.4382022,13.9532584 79.4382022,15.9289888 C79.4382022,18.2669663 79.4292135,20.6053933 79.447191,22.9420225 C79.447191,23.2961798 79.3393258,23.3662921 79.011236,23.3626966 C77.6134831,23.3442697 76.2157303,23.3483146 74.8179775,23.3604494 C74.5393258,23.3626966 74.4359551,23.3078652 74.4404494,23.0022472 C74.4494382,18.6674157 74.4494382,14.3325843 74.4404494,9.99910112 L79.4426966,9.99910112 Z" id="Combined-Shape" fill="#FFFFFF"></path>
                    <polygon id="Fill-9" fill="#BDD236" points="0.234157303 5.12719101 5.17438202 5.12719101 5.17438202 0.186067416 0.234157303 0.186067416"></polygon>
                </g>
            </g>
        </g>
    </g>
</svg>